# xmcd
#
# Track frame offsets:
#	150
#	18082
#	37030
#	52500
#	72575
#	98547
#	117542
#	133075
#	149770
#	165585
#	190810
#	197777
#	210477
#	222257
#	234927
#
# Disc length: 3291 seconds
#
# Revision: 1
# Processed by: cddbd v1.5.1PL0 Copyright (c) Steve Scherf et al.
# Submitted via: CDex 1.50Beta5
#
DISCID=d60cd90f
DTITLE=TAKE 6 - ヒット丼 カバー
DYEAR=1997
DGENRE=Vocal
TTITLE0=TAKE 6/シング・ア・ソング
TTITLE1=バハ・メン/ダンシング・イン・ザ・ムーンライト
TTITLE2=インナー・サークル/ゲームス
TTITLE3=シャインヘッド/ジャマイカン・イン・ニューヨーク
TTITLE4=チャカ・カーン/フィール・フォー・ユー
TTITLE5=NU FLAVOR/オープン・アームス
TTITLE6=シンプリー・レッド/二人の絆
TTITLE7=ルーチー・ルー/恋のゲット・タウン
TTITLE8=アート・オブ・ノイズ/KISS
TTITLE9=アル・ジャロウ/ユア・ソング
TTITLE10=リンダ・ロンシュタット/ウイ・ウィル・ロック・ユー
TTITLE11=エディ・リーダー/非情の町
TTITLE12=ハーパース・ビザール/フィーリン・グルービー
TTITLE13=デイビット・リー・ロス/カリフォルニア・ガール
TTITLE14=ディーボ/サティスファクション
EXTD=
EXTT0=
EXTT1=
EXTT2=
EXTT3=
EXTT4=
EXTT5=
EXTT6=
EXTT7=
EXTT8=
EXTT9=
EXTT10=
EXTT11=
EXTT12=
EXTT13=
EXTT14=
PLAYORDER=
